<svg width="178" height="30" viewBox="0 0 178 30" fill="none" xmlns="http://www.w3.org/2000/svg">
<path d="M42 27.768V3H48.264V22.728H57.912V27.768H42Z" fill="white"/>
<path d="M71.1648 28.056C69.3168 28.056 67.7808 27.948 66.5568 27.732C65.3328 27.492 64.3608 27.12 63.6408 26.616C62.9208 26.112 62.3808 25.428 62.0208 24.564C61.6608 23.676 61.4208 22.584 61.3008 21.288C61.2048 19.968 61.1568 18.408 61.1568 16.608V3H67.4208V17.94C67.4208 19.092 67.4448 20.028 67.4928 20.748C67.5648 21.444 67.7088 21.972 67.9248 22.332C68.1648 22.692 68.5368 22.932 69.0408 23.052C69.5688 23.148 70.2768 23.196 71.1648 23.196C72.0528 23.196 72.7488 23.148 73.2528 23.052C73.7568 22.932 74.1168 22.692 74.3328 22.332C74.5728 21.972 74.7168 21.444 74.7648 20.748C74.8368 20.028 74.8728 19.092 74.8728 17.94V3H81.1368V16.608C81.1368 18.408 81.0768 19.968 80.9568 21.288C80.8608 22.584 80.6328 23.676 80.2728 24.564C79.9368 25.428 79.4088 26.112 78.6888 26.616C77.9688 27.12 76.9968 27.492 75.7728 27.732C74.5488 27.948 73.0128 28.056 71.1648 28.056Z" fill="white"/>
<path d="M86.1562 27.768V3H94.7603L99.6923 17.688H99.9443L104.876 3H113.444V27.768H107.432V11.676H107.18L101.816 27.768H97.6043L92.2762 11.676H91.9883V27.768H86.1562Z" fill="white"/>
<path d="M118.57 27.768V3H124.834V27.768H118.57Z" fill="white"/>
<path d="M129.996 27.768V3H136.44L144.504 16.284H144.684V3H150.696V27.768H144.828L136.188 13.26H136.008V27.768H129.996Z" fill="white"/>
<path d="M153.533 27.768L161.381 3H169.913L177.797 27.768H171.461L169.985 22.908H161.165L159.725 27.768H153.533ZM162.497 18.192H168.617L165.665 8.4H165.413L162.497 18.192Z" fill="white"/>
<path d="M17.998 29.7002C17.0293 29.8967 16.0267 30 15 30C13.9733 30 12.9707 29.8967 12.002 29.7002H17.998ZM23.5869 27.2998C22.9415 27.7512 22.2591 28.1531 21.5449 28.5H8.45508C7.74088 28.1531 7.05845 27.7512 6.41309 27.2998H23.5869ZM27.001 24C26.431 24.7589 25.7908 25.4621 25.0898 26.0996H21V25.7998H19.5V25.5752H20.1787L18.75 24.9004L17.3213 25.5752H18V26.0996H11.7822L10.0498 25.5L8.31836 26.0996H4.91016C4.20921 25.4621 3.56904 24.7589 2.99902 24H27.001ZM29.2158 19.7998C28.8588 20.8577 28.3862 21.8624 27.8145 22.7998H24.9473L19.2002 22.0498L18.2998 22.3496L16.7998 21.9004L16.3496 22.5H14.4004L13.3496 22.6504L11.4004 22.0498L5.15332 22.7998H2.18555C1.61375 21.8624 1.14124 20.8577 0.78418 19.7998H29.2158ZM30 15C30 16.2409 29.8485 17.4464 29.5645 18.5996H27.5996V17.7002H25.5V18.2998H23.7002V18.5996H19.7998V18.2998H18V16.7998H17.4004V18.2998H15.2998V17.7002H10.5V18.5996H8.7002V17.7002H7.7998V18.2998H7.5V16.2002H6.59961V18.5996H5.40039V16.7998H4.7998V16.5H2.7002V18.5996H0.435547C0.151486 17.4464 0 16.2409 0 15C0 14.8998 0.00195144 14.7999 0.00390625 14.7002H29.9961C29.998 14.7999 30 14.8998 30 15ZM15 0C22.778 0 29.1732 5.92002 29.9258 13.5H28.5L24.5996 10.2002L23.25 11.0996L22.7998 10.7998L22.2002 11.4004L19.7998 9.90039L17.5498 10.7998L15.2998 9.2998L14.7002 9.59961L14.0996 9L1.5 13.5H0.0742188C0.826813 5.92002 7.22198 0 15 0Z" fill="white"/>
</svg>
