<svg width="50" height="50" viewBox="0 0 50 50" fill="none" xmlns="http://www.w3.org/2000/svg">
<path d="M31.2491 12.5H18.7491C15.2974 12.5 12.4991 15.2982 12.4991 18.75V31.25C12.4991 34.7018 15.2974 37.5 18.7491 37.5H31.2491C34.7009 37.5 37.4991 34.7018 37.4991 31.25V18.75C37.4991 15.2982 34.7009 12.5 31.2491 12.5Z" stroke="#FF5F31" stroke-width="2.5" stroke-linecap="round" stroke-linejoin="round"/>
<path d="M31.8739 18.125H31.8864M29.9989 24.2125C30.1532 25.2528 29.9755 26.3153 29.4911 27.2488C29.0067 28.1823 28.2403 28.9393 27.3009 29.4121C26.3615 29.8849 25.297 30.0495 24.2586 29.8824C23.2203 29.7153 22.2611 29.2251 21.5175 28.4815C20.7738 27.7378 20.2836 26.7786 20.1165 25.7403C19.9494 24.7019 20.114 23.6374 20.5868 22.698C21.0596 21.7586 21.8166 20.9922 22.7501 20.5078C23.6836 20.0234 24.7461 19.8457 25.7864 20C26.8476 20.1574 27.83 20.6518 28.5885 21.4104C29.3471 22.1689 29.8415 23.1513 29.9989 24.2125Z" stroke="#FF5F31" stroke-width="2.5" stroke-linecap="round" stroke-linejoin="round"/>
</svg>
