<svg width="50" height="50" viewBox="0 0 50 50" fill="none" xmlns="http://www.w3.org/2000/svg">
<path d="M18.6753 16.2498C18.675 16.9128 18.4113 17.5486 17.9422 18.0172C17.4731 18.4858 16.8371 18.7489 16.174 18.7485C15.511 18.7482 14.8752 18.4845 14.4066 18.0154C13.938 17.5463 13.675 16.9103 13.6753 16.2473C13.6756 15.5842 13.9393 14.9485 14.4084 14.4799C14.8775 14.0113 15.5135 13.7482 16.1765 13.7485C16.8396 13.7489 17.4753 14.0126 17.9439 14.4817C18.4126 14.9507 18.6756 15.5867 18.6753 16.2498ZM18.7503 20.5998H13.7503V36.2498H18.7503V20.5998ZM26.6503 20.5998H21.6753V36.2498H26.6003V28.0373C26.6003 23.4623 32.5628 23.0373 32.5628 28.0373V36.2498H37.5003V26.3373C37.5003 18.6248 28.6753 18.9123 26.6003 22.6998L26.6503 20.5998Z" fill="#FF5F31"/>
</svg>
