<svg width="50" height="50" viewBox="0 0 50 50" fill="none" xmlns="http://www.w3.org/2000/svg">
<g clip-path="url(#clip0_1_1556)">
<path fill-rule="evenodd" clip-rule="evenodd" d="M24.9998 12.5C18.096 12.5 12.4998 18.0963 12.4998 25C12.4998 31.9037 18.096 37.5 24.9998 37.5C31.9035 37.5 37.4998 31.9037 37.4998 25C37.4998 18.0963 31.9035 12.5 24.9998 12.5ZM14.9998 25C15.0002 22.9188 15.6499 20.8895 16.8584 19.1952C18.067 17.5008 19.774 16.2257 21.7417 15.5476C23.7094 14.8695 25.8395 14.8223 27.8353 15.4124C29.8311 16.0025 31.5931 17.2007 32.8756 18.8398C34.158 20.479 34.8971 22.4774 34.9898 24.5565C35.0825 26.6357 34.5242 28.692 33.3927 30.4387C32.2612 32.1855 30.6129 33.5357 28.6775 34.3011C26.7422 35.0665 24.6162 35.209 22.596 34.7087L23.4935 30.4912C24.3523 31.2362 25.4185 31.52 26.4423 31.5013C27.5648 31.48 28.6923 31.1012 29.636 30.5075C30.576 29.9163 31.416 29.0575 31.876 27.9988C32.3732 26.8574 32.5785 25.6102 32.4733 24.3697C32.3681 23.1292 31.9558 21.9344 31.2735 20.8931C30.5912 19.8517 29.6604 18.9966 28.5651 18.4049C27.4698 17.8131 26.2444 17.5033 24.9994 17.5034C23.7545 17.5035 22.5291 17.8135 21.4339 18.4055C20.3387 18.9975 19.4081 19.8528 18.726 20.8942C18.0439 21.9357 17.6318 23.1306 17.5268 24.3711C17.4218 25.6116 17.6273 26.8587 18.1248 28C18.187 28.1554 18.2798 28.2967 18.3977 28.4155C18.5156 28.5344 18.6561 28.6283 18.811 28.6918C18.9659 28.7553 19.1319 28.787 19.2993 28.7851C19.4667 28.7832 19.632 28.7477 19.7854 28.6807C19.9388 28.6138 20.0771 28.5166 20.1923 28.3952C20.3075 28.2737 20.397 28.1303 20.4557 27.9736C20.5144 27.8168 20.5411 27.6499 20.534 27.4826C20.527 27.3154 20.4864 27.1513 20.4148 27C20.1185 26.3189 19.9777 25.5803 20.0026 24.8379C20.0275 24.0955 20.2175 23.368 20.5588 22.7082C20.9001 22.0485 21.3841 21.4731 21.9756 21.0238C22.5671 20.5745 23.2513 20.2627 23.9785 20.111C24.7056 19.9593 25.4574 19.9715 26.1792 20.1467C26.9011 20.3219 27.5748 20.6558 28.1514 21.124C28.7281 21.5922 29.1932 22.183 29.5129 22.8535C29.8326 23.5239 29.9989 24.2572 29.9998 25C29.9998 26.3687 29.4873 27.6463 28.3035 28.3913C27.6935 28.7763 27.0048 28.9913 26.396 29.0013C25.7998 29.0138 25.3435 28.8337 25.0273 28.5025C24.7173 28.1775 24.376 27.55 24.376 26.375C24.376 25.625 24.6623 25 25.0048 23.385C25.0418 23.2234 25.0464 23.056 25.0181 22.8926C24.9898 22.7292 24.9294 22.5731 24.8402 22.4333C24.751 22.2935 24.6349 22.1728 24.4986 22.0783C24.3623 21.9839 24.2086 21.9174 24.0464 21.8829C23.8842 21.8484 23.7168 21.8466 23.5539 21.8774C23.3909 21.9083 23.2358 21.9712 23.0974 22.0626C22.959 22.154 22.8403 22.272 22.748 22.4098C22.6556 22.5475 22.5917 22.7023 22.5598 22.865L20.2348 33.7938C18.6508 32.9356 17.3282 31.6654 16.4067 30.1175C15.4853 28.5696 14.9991 26.8014 14.9998 25Z" fill="#FF5F31"/>
</g>
<defs>
<clipPath id="clip0_1_1556">
<rect width="30" height="30" fill="white" transform="translate(10.0001 9.99951)"/>
</clipPath>
</defs>
</svg>
