<svg width="214" height="141" viewBox="0 0 214 141" fill="none" xmlns="http://www.w3.org/2000/svg">
<path d="M6 3C6 4.65685 4.65685 6 3 6C1.34315 6 0 4.65685 0 3C0 1.34315 1.34315 0 3 0C4.65685 0 6 1.34315 6 3Z" fill="#EE4312"/>
<path d="M32 3C32 4.65685 30.6569 6 29 6C27.3431 6 26 4.65685 26 3C26 1.34315 27.3431 0 29 0C30.6569 0 32 1.34315 32 3Z" fill="#EE4312"/>
<path d="M58 3C58 4.65685 56.6569 6 55 6C53.3431 6 52 4.65685 52 3C52 1.34315 53.3431 0 55 0C56.6569 0 58 1.34315 58 3Z" fill="#EE4312"/>
<path d="M84 3C84 4.65685 82.6569 6 81 6C79.3431 6 78 4.65685 78 3C78 1.34315 79.3431 0 81 0C82.6569 0 84 1.34315 84 3Z" fill="#EE4312"/>
<path d="M110 3C110 4.65685 108.657 6 107 6C105.343 6 104 4.65685 104 3C104 1.34315 105.343 0 107 0C108.657 0 110 1.34315 110 3Z" fill="#EE4312"/>
<path d="M136 3C136 4.65685 134.657 6 133 6C131.343 6 130 4.65685 130 3C130 1.34315 131.343 0 133 0C134.657 0 136 1.34315 136 3Z" fill="#EE4312"/>
<path d="M162 3C162 4.65685 160.657 6 159 6C157.343 6 156 4.65685 156 3C156 1.34315 157.343 0 159 0C160.657 0 162 1.34315 162 3Z" fill="#EE4312"/>
<path d="M188 3C188 4.65685 186.657 6 185 6C183.343 6 182 4.65685 182 3C182 1.34315 183.343 0 185 0C186.657 0 188 1.34315 188 3Z" fill="#EE4312"/>
<path d="M214 3C214 4.65685 212.657 6 211 6C209.343 6 208 4.65685 208 3C208 1.34315 209.343 0 211 0C212.657 0 214 1.34315 214 3Z" fill="#EE4312"/>
<path d="M19 30C19 31.6569 17.6569 33 16 33C14.3431 33 13 31.6569 13 30C13 28.3431 14.3431 27 16 27C17.6569 27 19 28.3431 19 30Z" fill="#EE4312"/>
<path d="M45 30C45 31.6569 43.6569 33 42 33C40.3431 33 39 31.6569 39 30C39 28.3431 40.3431 27 42 27C43.6569 27 45 28.3431 45 30Z" fill="#EE4312"/>
<path d="M71 30C71 31.6569 69.6569 33 68 33C66.3431 33 65 31.6569 65 30C65 28.3431 66.3431 27 68 27C69.6569 27 71 28.3431 71 30Z" fill="#EE4312"/>
<path d="M97 30C97 31.6569 95.6569 33 94 33C92.3431 33 91 31.6569 91 30C91 28.3431 92.3431 27 94 27C95.6569 27 97 28.3431 97 30Z" fill="#EE4312"/>
<path d="M123 30C123 31.6569 121.657 33 120 33C118.343 33 117 31.6569 117 30C117 28.3431 118.343 27 120 27C121.657 27 123 28.3431 123 30Z" fill="#EE4312"/>
<path d="M149 30C149 31.6569 147.657 33 146 33C144.343 33 143 31.6569 143 30C143 28.3431 144.343 27 146 27C147.657 27 149 28.3431 149 30Z" fill="#EE4312"/>
<path d="M175 30C175 31.6569 173.657 33 172 33C170.343 33 169 31.6569 169 30C169 28.3431 170.343 27 172 27C173.657 27 175 28.3431 175 30Z" fill="#EE4312"/>
<path d="M201 30C201 31.6569 199.657 33 198 33C196.343 33 195 31.6569 195 30C195 28.3431 196.343 27 198 27C199.657 27 201 28.3431 201 30Z" fill="#EE4312"/>
<path d="M6 57C6 58.6569 4.65685 60 3 60C1.34315 60 0 58.6569 0 57C0 55.3431 1.34315 54 3 54C4.65685 54 6 55.3431 6 57Z" fill="#EE4312"/>
<path d="M32 57C32 58.6569 30.6569 60 29 60C27.3431 60 26 58.6569 26 57C26 55.3431 27.3431 54 29 54C30.6569 54 32 55.3431 32 57Z" fill="#EE4312"/>
<path d="M58 57C58 58.6569 56.6569 60 55 60C53.3431 60 52 58.6569 52 57C52 55.3431 53.3431 54 55 54C56.6569 54 58 55.3431 58 57Z" fill="#EE4312"/>
<path d="M84 57C84 58.6569 82.6569 60 81 60C79.3431 60 78 58.6569 78 57C78 55.3431 79.3431 54 81 54C82.6569 54 84 55.3431 84 57Z" fill="#EE4312"/>
<path d="M110 57C110 58.6569 108.657 60 107 60C105.343 60 104 58.6569 104 57C104 55.3431 105.343 54 107 54C108.657 54 110 55.3431 110 57Z" fill="#EE4312"/>
<path d="M136 57C136 58.6569 134.657 60 133 60C131.343 60 130 58.6569 130 57C130 55.3431 131.343 54 133 54C134.657 54 136 55.3431 136 57Z" fill="#EE4312"/>
<path d="M162 57C162 58.6569 160.657 60 159 60C157.343 60 156 58.6569 156 57C156 55.3431 157.343 54 159 54C160.657 54 162 55.3431 162 57Z" fill="#EE4312"/>
<path d="M188 57C188 58.6569 186.657 60 185 60C183.343 60 182 58.6569 182 57C182 55.3431 183.343 54 185 54C186.657 54 188 55.3431 188 57Z" fill="#EE4312"/>
<path d="M214 57C214 58.6569 212.657 60 211 60C209.343 60 208 58.6569 208 57C208 55.3431 209.343 54 211 54C212.657 54 214 55.3431 214 57Z" fill="#EE4312"/>
<path d="M19 84C19 85.6569 17.6569 87 16 87C14.3431 87 13 85.6569 13 84C13 82.3431 14.3431 81 16 81C17.6569 81 19 82.3431 19 84Z" fill="#EE4312"/>
<path d="M45 84C45 85.6569 43.6569 87 42 87C40.3431 87 39 85.6569 39 84C39 82.3431 40.3431 81 42 81C43.6569 81 45 82.3431 45 84Z" fill="#EE4312"/>
<path d="M71 84C71 85.6569 69.6569 87 68 87C66.3431 87 65 85.6569 65 84C65 82.3431 66.3431 81 68 81C69.6569 81 71 82.3431 71 84Z" fill="#EE4312"/>
<path d="M97 84C97 85.6569 95.6569 87 94 87C92.3431 87 91 85.6569 91 84C91 82.3431 92.3431 81 94 81C95.6569 81 97 82.3431 97 84Z" fill="#EE4312"/>
<path d="M123 84C123 85.6569 121.657 87 120 87C118.343 87 117 85.6569 117 84C117 82.3431 118.343 81 120 81C121.657 81 123 82.3431 123 84Z" fill="#EE4312"/>
<path d="M149 84C149 85.6569 147.657 87 146 87C144.343 87 143 85.6569 143 84C143 82.3431 144.343 81 146 81C147.657 81 149 82.3431 149 84Z" fill="#EE4312"/>
<path d="M175 84C175 85.6569 173.657 87 172 87C170.343 87 169 85.6569 169 84C169 82.3431 170.343 81 172 81C173.657 81 175 82.3431 175 84Z" fill="#EE4312"/>
<path d="M201 84C201 85.6569 199.657 87 198 87C196.343 87 195 85.6569 195 84C195 82.3431 196.343 81 198 81C199.657 81 201 82.3431 201 84Z" fill="#EE4312"/>
<path d="M6 111C6 112.657 4.65685 114 3 114C1.34315 114 0 112.657 0 111C0 109.343 1.34315 108 3 108C4.65685 108 6 109.343 6 111Z" fill="#EE4312"/>
<path d="M32 111C32 112.657 30.6569 114 29 114C27.3431 114 26 112.657 26 111C26 109.343 27.3431 108 29 108C30.6569 108 32 109.343 32 111Z" fill="#EE4312"/>
<path d="M58 111C58 112.657 56.6569 114 55 114C53.3431 114 52 112.657 52 111C52 109.343 53.3431 108 55 108C56.6569 108 58 109.343 58 111Z" fill="#EE4312"/>
<path d="M84 111C84 112.657 82.6569 114 81 114C79.3431 114 78 112.657 78 111C78 109.343 79.3431 108 81 108C82.6569 108 84 109.343 84 111Z" fill="#EE4312"/>
<path d="M110 111C110 112.657 108.657 114 107 114C105.343 114 104 112.657 104 111C104 109.343 105.343 108 107 108C108.657 108 110 109.343 110 111Z" fill="#EE4312"/>
<path d="M136 111C136 112.657 134.657 114 133 114C131.343 114 130 112.657 130 111C130 109.343 131.343 108 133 108C134.657 108 136 109.343 136 111Z" fill="#EE4312"/>
<path d="M162 111C162 112.657 160.657 114 159 114C157.343 114 156 112.657 156 111C156 109.343 157.343 108 159 108C160.657 108 162 109.343 162 111Z" fill="#EE4312"/>
<path d="M188 111C188 112.657 186.657 114 185 114C183.343 114 182 112.657 182 111C182 109.343 183.343 108 185 108C186.657 108 188 109.343 188 111Z" fill="#EE4312"/>
<path d="M214 111C214 112.657 212.657 114 211 114C209.343 114 208 112.657 208 111C208 109.343 209.343 108 211 108C212.657 108 214 109.343 214 111Z" fill="#EE4312"/>
<path d="M19 138C19 139.657 17.6569 141 16 141C14.3431 141 13 139.657 13 138C13 136.343 14.3431 135 16 135C17.6569 135 19 136.343 19 138Z" fill="#EE4312"/>
<path d="M45 138C45 139.657 43.6569 141 42 141C40.3431 141 39 139.657 39 138C39 136.343 40.3431 135 42 135C43.6569 135 45 136.343 45 138Z" fill="#EE4312"/>
<path d="M71 138C71 139.657 69.6569 141 68 141C66.3431 141 65 139.657 65 138C65 136.343 66.3431 135 68 135C69.6569 135 71 136.343 71 138Z" fill="#EE4312"/>
<path d="M97 138C97 139.657 95.6569 141 94 141C92.3431 141 91 139.657 91 138C91 136.343 92.3431 135 94 135C95.6569 135 97 136.343 97 138Z" fill="#EE4312"/>
<path d="M123 138C123 139.657 121.657 141 120 141C118.343 141 117 139.657 117 138C117 136.343 118.343 135 120 135C121.657 135 123 136.343 123 138Z" fill="#EE4312"/>
<path d="M149 138C149 139.657 147.657 141 146 141C144.343 141 143 139.657 143 138C143 136.343 144.343 135 146 135C147.657 135 149 136.343 149 138Z" fill="#EE4312"/>
<path d="M175 138C175 139.657 173.657 141 172 141C170.343 141 169 139.657 169 138C169 136.343 170.343 135 172 135C173.657 135 175 136.343 175 138Z" fill="#EE4312"/>
<path d="M201 138C201 139.657 199.657 141 198 141C196.343 141 195 139.657 195 138C195 136.343 196.343 135 198 135C199.657 135 201 136.343 201 138Z" fill="#EE4312"/>
</svg>
