<svg width="451" height="58" viewBox="0 0 451 58" fill="none" xmlns="http://www.w3.org/2000/svg">
<g clip-path="url(#clip0_1_576)">
<path d="M-41 57.917L129.878 -238.052" stroke="#0E1947" stroke-width="2.5"/>
<path d="M-24.6927 67.332L146.185 -228.637" stroke="#0E1947" stroke-width="2.5"/>
<path d="M-8.3855 76.7471L162.492 -219.221" stroke="#0E1947" stroke-width="2.5"/>
<path d="M7.92175 86.1621L178.799 -209.806" stroke="#0E1947" stroke-width="2.5"/>
<path d="M24.229 95.5769L195.107 -200.392" stroke="#0E1947" stroke-width="2.5"/>
<path d="M40.5363 104.992L211.414 -190.977" stroke="#0E1947" stroke-width="2.5"/>
<path d="M56.8435 114.407L227.721 -181.562" stroke="#0E1947" stroke-width="2.5"/>
<path d="M73.1508 123.822L244.028 -172.147" stroke="#0E1947" stroke-width="2.5"/>
<path d="M89.458 133.237L260.336 -162.731" stroke="#0E1947" stroke-width="2.5"/>
<path d="M105.765 142.652L276.643 -153.316" stroke="#0E1947" stroke-width="2.5"/>
<path d="M122.073 152.067L292.95 -143.902" stroke="#0E1947" stroke-width="2.5"/>
<path d="M138.38 161.482L309.257 -134.487" stroke="#0E1947" stroke-width="2.5"/>
<path d="M154.687 170.897L325.565 -125.072" stroke="#0E1947" stroke-width="2.5"/>
<path d="M170.994 180.312L341.872 -115.657" stroke="#0E1947" stroke-width="2.5"/>
<path d="M187.302 189.727L358.179 -106.241" stroke="#0E1947" stroke-width="2.5"/>
<path d="M203.609 199.142L374.486 -96.8265" stroke="#0E1947" stroke-width="2.5"/>
<path d="M219.916 208.557L390.794 -87.4117" stroke="#0E1947" stroke-width="2.5"/>
<path d="M236.223 217.972L407.101 -77.9966" stroke="#0E1947" stroke-width="2.5"/>
<path d="M252.531 227.387L423.408 -68.5816" stroke="#0E1947" stroke-width="2.5"/>
<path d="M268.838 236.802L439.715 -59.1665" stroke="#0E1947" stroke-width="2.5"/>
<path d="M285.145 246.217L456.023 -49.7515" stroke="#0E1947" stroke-width="2.5"/>
<path d="M301.452 255.632L472.33 -40.3367" stroke="#0E1947" stroke-width="2.5"/>
<path d="M317.76 265.047L488.637 -30.9217" stroke="#0E1947" stroke-width="2.5"/>
</g>
<defs>
<clipPath id="clip0_1_576">
<rect width="451" height="58" fill="white" transform="matrix(1 0 0 -1 0 58)"/>
</clipPath>
</defs>
</svg>
