<svg width="58" height="110" viewBox="0 0 58 110" fill="none" xmlns="http://www.w3.org/2000/svg">
<circle cx="55" cy="3" r="3" transform="rotate(90 55 3)" fill="#EE4312"/>
<circle cx="55" cy="29" r="3" transform="rotate(90 55 29)" fill="#EE4312"/>
<circle cx="55" cy="55" r="3" transform="rotate(90 55 55)" fill="#EE4312"/>
<circle cx="55" cy="81" r="3" transform="rotate(90 55 81)" fill="#EE4312"/>
<circle cx="55" cy="107" r="3" transform="rotate(90 55 107)" fill="#EE4312"/>
<circle cx="29" cy="3" r="3" transform="rotate(90 29 3)" fill="#EE4312"/>
<circle cx="29" cy="29" r="3" transform="rotate(90 29 29)" fill="#EE4312"/>
<circle cx="29" cy="55" r="3" transform="rotate(90 29 55)" fill="#EE4312"/>
<circle cx="29" cy="81" r="3" transform="rotate(90 29 81)" fill="#EE4312"/>
<circle cx="29" cy="107" r="3" transform="rotate(90 29 107)" fill="#EE4312"/>
<circle cx="3" cy="3" r="3" transform="rotate(90 3 3)" fill="#EE4312"/>
<circle cx="3" cy="29" r="3" transform="rotate(90 3 29)" fill="#EE4312"/>
<circle cx="3" cy="55" r="3" transform="rotate(90 3 55)" fill="#EE4312"/>
<circle cx="3" cy="81" r="3" transform="rotate(90 3 81)" fill="#EE4312"/>
<circle cx="3" cy="107" r="3" transform="rotate(90 3 107)" fill="#EE4312"/>
</svg>
