<svg width="58" height="280" viewBox="0 0 58 280" fill="none" xmlns="http://www.w3.org/2000/svg">
<g clip-path="url(#clip0_1_533)">
<path d="M0.0830078 -107.591L296.052 63.2869" stroke="#FF5F31" stroke-width="3"/>
<path d="M-9.41699 -91.1361L286.552 79.7414" stroke="#FF5F31" stroke-width="3"/>
<path d="M-18.917 -74.6816L277.052 96.1959" stroke="#FF5F31" stroke-width="3"/>
<path d="M-28.417 -58.2272L267.552 112.65" stroke="#FF5F31" stroke-width="3"/>
<path d="M-37.917 -41.7727L258.052 129.105" stroke="#FF5F31" stroke-width="3"/>
<path d="M-47.417 -25.3181L248.552 145.559" stroke="#FF5F31" stroke-width="3"/>
<path d="M-56.917 -8.86377L239.052 162.014" stroke="#FF5F31" stroke-width="3"/>
<path d="M-66.417 7.59082L229.552 178.468" stroke="#FF5F31" stroke-width="3"/>
<path d="M-75.917 24.0452L220.052 194.923" stroke="#FF5F31" stroke-width="3"/>
<path d="M-85.417 40.4998L210.552 211.377" stroke="#FF5F31" stroke-width="3"/>
<path d="M-94.917 56.9543L201.052 227.832" stroke="#FF5F31" stroke-width="3"/>
<path d="M-104.417 73.4087L191.552 244.286" stroke="#FF5F31" stroke-width="3"/>
<path d="M-113.917 89.8633L182.052 260.741" stroke="#FF5F31" stroke-width="3"/>
<path d="M-123.417 106.318L172.552 277.195" stroke="#FF5F31" stroke-width="3"/>
<path d="M-132.917 122.772L163.052 293.65" stroke="#FF5F31" stroke-width="3"/>
<path d="M-142.417 139.227L153.552 310.104" stroke="#FF5F31" stroke-width="3"/>
<path d="M-151.917 155.681L144.052 326.559" stroke="#FF5F31" stroke-width="3"/>
<path d="M-161.417 172.136L134.552 343.013" stroke="#FF5F31" stroke-width="3"/>
<path d="M-170.917 188.59L125.052 359.468" stroke="#FF5F31" stroke-width="3"/>
<path d="M-180.417 205.045L115.552 375.922" stroke="#FF5F31" stroke-width="3"/>
</g>
<defs>
<clipPath id="clip0_1_533">
<rect width="280" height="58" fill="white" transform="matrix(4.37114e-08 1 1 -4.37114e-08 0 0)"/>
</clipPath>
</defs>
</svg>
