<svg width="1280" height="196" viewBox="0 0 1280 196" fill="none" xmlns="http://www.w3.org/2000/svg">
<circle cx="3" cy="46" r="3" fill="#FF5F31"/>
<circle cx="29" cy="46" r="3" fill="#FF5F31"/>
<circle cx="55" cy="46" r="3" fill="#FF5F31"/>
<circle cx="81" cy="46" r="3" fill="#FF5F31"/>
<circle cx="107" cy="46" r="3" fill="#FF5F31"/>
<circle cx="133" cy="46" r="3" fill="#FF5F31"/>
<circle cx="159" cy="46" r="3" fill="#FF5F31"/>
<circle cx="185" cy="46" r="3" fill="#FF5F31"/>
<circle cx="211" cy="46" r="3" fill="#FF5F31"/>
<circle cx="3" cy="72" r="3" fill="#FF5F31"/>
<circle cx="29" cy="72" r="3" fill="#FF5F31"/>
<circle cx="55" cy="72" r="3" fill="#FF5F31"/>
<circle cx="81" cy="72" r="3" fill="#FF5F31"/>
<circle cx="107" cy="72" r="3" fill="#FF5F31"/>
<circle cx="133" cy="72" r="3" fill="#FF5F31"/>
<circle cx="159" cy="72" r="3" fill="#FF5F31"/>
<circle cx="185" cy="72" r="3" fill="#FF5F31"/>
<circle cx="211" cy="72" r="3" fill="#FF5F31"/>
<circle cx="3" cy="98" r="3" fill="#FF5F31"/>
<circle cx="29" cy="98" r="3" fill="#FF5F31"/>
<circle cx="55" cy="98" r="3" fill="#FF5F31"/>
<circle cx="81" cy="98" r="3" fill="#FF5F31"/>
<circle cx="107" cy="98" r="3" fill="#FF5F31"/>
<circle cx="133" cy="98" r="3" fill="#FF5F31"/>
<circle cx="159" cy="98" r="3" fill="#FF5F31"/>
<circle cx="185" cy="98" r="3" fill="#FF5F31"/>
<circle cx="211" cy="98" r="3" fill="#FF5F31"/>
<circle cx="3" cy="124" r="3" fill="#FF5F31"/>
<circle cx="29" cy="124" r="3" fill="#FF5F31"/>
<circle cx="55" cy="124" r="3" fill="#FF5F31"/>
<circle cx="81" cy="124" r="3" fill="#FF5F31"/>
<circle cx="107" cy="124" r="3" fill="#FF5F31"/>
<circle cx="133" cy="124" r="3" fill="#FF5F31"/>
<circle cx="159" cy="124" r="3" fill="#FF5F31"/>
<circle cx="185" cy="124" r="3" fill="#FF5F31"/>
<circle cx="211" cy="124" r="3" fill="#FF5F31"/>
<circle cx="3" cy="150" r="3" fill="#FF5F31"/>
<circle cx="29" cy="150" r="3" fill="#FF5F31"/>
<circle cx="55" cy="150" r="3" fill="#FF5F31"/>
<circle cx="81" cy="150" r="3" fill="#FF5F31"/>
<circle cx="107" cy="150" r="3" fill="#FF5F31"/>
<circle cx="133" cy="150" r="3" fill="#FF5F31"/>
<circle cx="159" cy="150" r="3" fill="#FF5F31"/>
<circle cx="185" cy="150" r="3" fill="#FF5F31"/>
<circle cx="211" cy="150" r="3" fill="#FF5F31"/>
<circle cx="237" cy="46" r="3" fill="#FF5F31"/>
<circle cx="263" cy="46" r="3" fill="#FF5F31"/>
<circle cx="289" cy="46" r="3" fill="#FF5F31"/>
<circle cx="315" cy="46" r="3" fill="#FF5F31"/>
<circle cx="341" cy="46" r="3" fill="#FF5F31"/>
<circle cx="367" cy="46" r="3" fill="#FF5F31"/>
<circle cx="393" cy="46" r="3" fill="#FF5F31"/>
<circle cx="419" cy="46" r="3" fill="#FF5F31"/>
<circle cx="445" cy="46" r="3" fill="#FF5F31"/>
<circle cx="237" cy="72" r="3" fill="#FF5F31"/>
<circle cx="263" cy="72" r="3" fill="#FF5F31"/>
<circle cx="289" cy="72" r="3" fill="#FF5F31"/>
<circle cx="315" cy="72" r="3" fill="#FF5F31"/>
<circle cx="341" cy="72" r="3" fill="#FF5F31"/>
<circle cx="367" cy="72" r="3" fill="#FF5F31"/>
<circle cx="393" cy="72" r="3" fill="#FF5F31"/>
<circle cx="419" cy="72" r="3" fill="#FF5F31"/>
<circle cx="445" cy="72" r="3" fill="#FF5F31"/>
<circle cx="237" cy="98" r="3" fill="#FF5F31"/>
<circle cx="263" cy="98" r="3" fill="#FF5F31"/>
<circle cx="289" cy="98" r="3" fill="#FF5F31"/>
<circle cx="315" cy="98" r="3" fill="#FF5F31"/>
<circle cx="341" cy="98" r="3" fill="#FF5F31"/>
<circle cx="367" cy="98" r="3" fill="#FF5F31"/>
<circle cx="393" cy="98" r="3" fill="#FF5F31"/>
<circle cx="419" cy="98" r="3" fill="#FF5F31"/>
<circle cx="445" cy="98" r="3" fill="#FF5F31"/>
<circle cx="237" cy="124" r="3" fill="#FF5F31"/>
<circle cx="263" cy="124" r="3" fill="#FF5F31"/>
<circle cx="289" cy="124" r="3" fill="#FF5F31"/>
<circle cx="315" cy="124" r="3" fill="#FF5F31"/>
<circle cx="341" cy="124" r="3" fill="#FF5F31"/>
<circle cx="367" cy="124" r="3" fill="#FF5F31"/>
<circle cx="393" cy="124" r="3" fill="#FF5F31"/>
<circle cx="419" cy="124" r="3" fill="#FF5F31"/>
<circle cx="445" cy="124" r="3" fill="#FF5F31"/>
<circle cx="237" cy="150" r="3" fill="#FF5F31"/>
<circle cx="263" cy="150" r="3" fill="#FF5F31"/>
<circle cx="289" cy="150" r="3" fill="#FF5F31"/>
<circle cx="315" cy="150" r="3" fill="#FF5F31"/>
<circle cx="341" cy="150" r="3" fill="#FF5F31"/>
<circle cx="367" cy="150" r="3" fill="#FF5F31"/>
<circle cx="393" cy="150" r="3" fill="#FF5F31"/>
<circle cx="419" cy="150" r="3" fill="#FF5F31"/>
<circle cx="445" cy="150" r="3" fill="#FF5F31"/>
<circle cx="471" cy="46" r="3" fill="#FF5F31"/>
<circle cx="497" cy="46" r="3" fill="#FF5F31"/>
<circle cx="523" cy="46" r="3" fill="#FF5F31"/>
<circle cx="549" cy="46" r="3" fill="#FF5F31"/>
<circle cx="575" cy="46" r="3" fill="#FF5F31"/>
<circle cx="601" cy="46" r="3" fill="#FF5F31"/>
<circle cx="627" cy="46" r="3" fill="#FF5F31"/>
<circle cx="653" cy="46" r="3" fill="#FF5F31"/>
<circle cx="679" cy="46" r="3" fill="#FF5F31"/>
<circle cx="471" cy="72" r="3" fill="#FF5F31"/>
<circle cx="497" cy="72" r="3" fill="#FF5F31"/>
<circle cx="523" cy="72" r="3" fill="#FF5F31"/>
<circle cx="549" cy="72" r="3" fill="#FF5F31"/>
<circle cx="575" cy="72" r="3" fill="#FF5F31"/>
<circle cx="601" cy="72" r="3" fill="#FF5F31"/>
<circle cx="627" cy="72" r="3" fill="#FF5F31"/>
<circle cx="653" cy="72" r="3" fill="#FF5F31"/>
<circle cx="679" cy="72" r="3" fill="#FF5F31"/>
<circle cx="471" cy="98" r="3" fill="#FF5F31"/>
<circle cx="497" cy="98" r="3" fill="#FF5F31"/>
<circle cx="523" cy="98" r="3" fill="#FF5F31"/>
<circle cx="549" cy="98" r="3" fill="#FF5F31"/>
<circle cx="575" cy="98" r="3" fill="#FF5F31"/>
<circle cx="601" cy="98" r="3" fill="#FF5F31"/>
<circle cx="627" cy="98" r="3" fill="#FF5F31"/>
<circle cx="653" cy="98" r="3" fill="#FF5F31"/>
<circle cx="679" cy="98" r="3" fill="#FF5F31"/>
<circle cx="471" cy="124" r="3" fill="#FF5F31"/>
<circle cx="497" cy="124" r="3" fill="#FF5F31"/>
<circle cx="523" cy="124" r="3" fill="#FF5F31"/>
<circle cx="549" cy="124" r="3" fill="#FF5F31"/>
<circle cx="575" cy="124" r="3" fill="#FF5F31"/>
<circle cx="601" cy="124" r="3" fill="#FF5F31"/>
<circle cx="627" cy="124" r="3" fill="#FF5F31"/>
<circle cx="653" cy="124" r="3" fill="#FF5F31"/>
<circle cx="679" cy="124" r="3" fill="#FF5F31"/>
<circle cx="471" cy="150" r="3" fill="#FF5F31"/>
<circle cx="497" cy="150" r="3" fill="#FF5F31"/>
<circle cx="523" cy="150" r="3" fill="#FF5F31"/>
<circle cx="549" cy="150" r="3" fill="#FF5F31"/>
<circle cx="575" cy="150" r="3" fill="#FF5F31"/>
<circle cx="601" cy="150" r="3" fill="#FF5F31"/>
<circle cx="627" cy="150" r="3" fill="#FF5F31"/>
<circle cx="653" cy="150" r="3" fill="#FF5F31"/>
<circle cx="679" cy="150" r="3" fill="#FF5F31"/>
<circle cx="705" cy="46" r="3" fill="#FF5F31"/>
<circle cx="731" cy="46" r="3" fill="#FF5F31"/>
<circle cx="757" cy="46" r="3" fill="#FF5F31"/>
<circle cx="783" cy="46" r="3" fill="#FF5F31"/>
<circle cx="809" cy="46" r="3" fill="#FF5F31"/>
<circle cx="835" cy="46" r="3" fill="#FF5F31"/>
<circle cx="861" cy="46" r="3" fill="#FF5F31"/>
<circle cx="887" cy="46" r="3" fill="#FF5F31"/>
<circle cx="913" cy="46" r="3" fill="#FF5F31"/>
<circle cx="705" cy="72" r="3" fill="#FF5F31"/>
<circle cx="731" cy="72" r="3" fill="#FF5F31"/>
<circle cx="757" cy="72" r="3" fill="#FF5F31"/>
<circle cx="783" cy="72" r="3" fill="#FF5F31"/>
<circle cx="809" cy="72" r="3" fill="#FF5F31"/>
<circle cx="835" cy="72" r="3" fill="#FF5F31"/>
<circle cx="861" cy="72" r="3" fill="#FF5F31"/>
<circle cx="887" cy="72" r="3" fill="#FF5F31"/>
<circle cx="913" cy="72" r="3" fill="#FF5F31"/>
<circle cx="705" cy="98" r="3" fill="#FF5F31"/>
<circle cx="731" cy="98" r="3" fill="#FF5F31"/>
<circle cx="757" cy="98" r="3" fill="#FF5F31"/>
<circle cx="783" cy="98" r="3" fill="#FF5F31"/>
<circle cx="809" cy="98" r="3" fill="#FF5F31"/>
<circle cx="835" cy="98" r="3" fill="#FF5F31"/>
<circle cx="861" cy="98" r="3" fill="#FF5F31"/>
<circle cx="887" cy="98" r="3" fill="#FF5F31"/>
<circle cx="913" cy="98" r="3" fill="#FF5F31"/>
<circle cx="705" cy="124" r="3" fill="#FF5F31"/>
<circle cx="731" cy="124" r="3" fill="#FF5F31"/>
<circle cx="757" cy="124" r="3" fill="#FF5F31"/>
<circle cx="783" cy="124" r="3" fill="#FF5F31"/>
<circle cx="809" cy="124" r="3" fill="#FF5F31"/>
<circle cx="835" cy="124" r="3" fill="#FF5F31"/>
<circle cx="861" cy="124" r="3" fill="#FF5F31"/>
<circle cx="887" cy="124" r="3" fill="#FF5F31"/>
<circle cx="913" cy="124" r="3" fill="#FF5F31"/>
<circle cx="705" cy="150" r="3" fill="#FF5F31"/>
<circle cx="731" cy="150" r="3" fill="#FF5F31"/>
<circle cx="757" cy="150" r="3" fill="#FF5F31"/>
<circle cx="783" cy="150" r="3" fill="#FF5F31"/>
<circle cx="809" cy="150" r="3" fill="#FF5F31"/>
<circle cx="835" cy="150" r="3" fill="#FF5F31"/>
<circle cx="861" cy="150" r="3" fill="#FF5F31"/>
<circle cx="887" cy="150" r="3" fill="#FF5F31"/>
<circle cx="913" cy="150" r="3" fill="#FF5F31"/>
<circle cx="939" cy="46" r="3" fill="#FF5F31"/>
<circle cx="965" cy="46" r="3" fill="#FF5F31"/>
<circle cx="991" cy="46" r="3" fill="#FF5F31"/>
<circle cx="1017" cy="46" r="3" fill="#FF5F31"/>
<circle cx="1043" cy="46" r="3" fill="#FF5F31"/>
<circle cx="1069" cy="46" r="3" fill="#FF5F31"/>
<circle cx="1095" cy="46" r="3" fill="#FF5F31"/>
<circle cx="1121" cy="46" r="3" fill="#FF5F31"/>
<circle cx="1147" cy="46" r="3" fill="#FF5F31"/>
<circle cx="939" cy="72" r="3" fill="#FF5F31"/>
<circle cx="965" cy="72" r="3" fill="#FF5F31"/>
<circle cx="991" cy="72" r="3" fill="#FF5F31"/>
<circle cx="1017" cy="72" r="3" fill="#FF5F31"/>
<circle cx="1043" cy="72" r="3" fill="#FF5F31"/>
<circle cx="1069" cy="72" r="3" fill="#FF5F31"/>
<circle cx="1095" cy="72" r="3" fill="#FF5F31"/>
<circle cx="1121" cy="72" r="3" fill="#FF5F31"/>
<circle cx="1147" cy="72" r="3" fill="#FF5F31"/>
<circle cx="939" cy="98" r="3" fill="#FF5F31"/>
<circle cx="965" cy="98" r="3" fill="#FF5F31"/>
<circle cx="991" cy="98" r="3" fill="#FF5F31"/>
<circle cx="1017" cy="98" r="3" fill="#FF5F31"/>
<circle cx="1043" cy="98" r="3" fill="#FF5F31"/>
<circle cx="1069" cy="98" r="3" fill="#FF5F31"/>
<circle cx="1095" cy="98" r="3" fill="#FF5F31"/>
<circle cx="1121" cy="98" r="3" fill="#FF5F31"/>
<circle cx="1147" cy="98" r="3" fill="#FF5F31"/>
<circle cx="939" cy="124" r="3" fill="#FF5F31"/>
<circle cx="965" cy="124" r="3" fill="#FF5F31"/>
<circle cx="991" cy="124" r="3" fill="#FF5F31"/>
<circle cx="1017" cy="124" r="3" fill="#FF5F31"/>
<circle cx="1043" cy="124" r="3" fill="#FF5F31"/>
<circle cx="1069" cy="124" r="3" fill="#FF5F31"/>
<circle cx="1095" cy="124" r="3" fill="#FF5F31"/>
<circle cx="1121" cy="124" r="3" fill="#FF5F31"/>
<circle cx="1147" cy="124" r="3" fill="#FF5F31"/>
<circle cx="939" cy="150" r="3" fill="#FF5F31"/>
<circle cx="965" cy="150" r="3" fill="#FF5F31"/>
<circle cx="991" cy="150" r="3" fill="#FF5F31"/>
<circle cx="1017" cy="150" r="3" fill="#FF5F31"/>
<circle cx="1043" cy="150" r="3" fill="#FF5F31"/>
<circle cx="1069" cy="150" r="3" fill="#FF5F31"/>
<circle cx="1095" cy="150" r="3" fill="#FF5F31"/>
<circle cx="1121" cy="150" r="3" fill="#FF5F31"/>
<circle cx="1147" cy="150" r="3" fill="#FF5F31"/>
<circle cx="1173" cy="46" r="3" fill="#FF5F31"/>
<circle cx="1199" cy="46" r="3" fill="#FF5F31"/>
<circle cx="1225" cy="46" r="3" fill="#FF5F31"/>
<circle cx="1251" cy="46" r="3" fill="#FF5F31"/>
<circle cx="1277" cy="46" r="3" fill="#FF5F31"/>
<circle cx="1173" cy="72" r="3" fill="#FF5F31"/>
<circle cx="1199" cy="72" r="3" fill="#FF5F31"/>
<circle cx="1225" cy="72" r="3" fill="#FF5F31"/>
<circle cx="1251" cy="72" r="3" fill="#FF5F31"/>
<circle cx="1277" cy="72" r="3" fill="#FF5F31"/>
<circle cx="1173" cy="98" r="3" fill="#FF5F31"/>
<circle cx="1199" cy="98" r="3" fill="#FF5F31"/>
<circle cx="1225" cy="98" r="3" fill="#FF5F31"/>
<circle cx="1251" cy="98" r="3" fill="#FF5F31"/>
<circle cx="1277" cy="98" r="3" fill="#FF5F31"/>
<circle cx="1173" cy="124" r="3" fill="#FF5F31"/>
<circle cx="1199" cy="124" r="3" fill="#FF5F31"/>
<circle cx="1225" cy="124" r="3" fill="#FF5F31"/>
<circle cx="1251" cy="124" r="3" fill="#FF5F31"/>
<circle cx="1277" cy="124" r="3" fill="#FF5F31"/>
<circle cx="1173" cy="150" r="3" fill="#FF5F31"/>
<circle cx="1199" cy="150" r="3" fill="#FF5F31"/>
<circle cx="1225" cy="150" r="3" fill="#FF5F31"/>
<circle cx="1251" cy="150" r="3" fill="#FF5F31"/>
<circle cx="1277" cy="150" r="3" fill="#FF5F31"/>
</svg>
