<svg width="60" height="60" viewBox="0 0 60 60" fill="none" xmlns="http://www.w3.org/2000/svg">
<rect width="60" height="60" rx="30" fill="white"/>
<circle cx="18.7224" cy="25.7224" r="0.72238" fill="#EE4312"/>
<circle cx="23.1671" cy="25.7224" r="0.72238" fill="#EE4312"/>
<circle cx="27.6119" cy="25.7224" r="0.72238" fill="#EE4312"/>
<circle cx="32.0566" cy="25.7224" r="0.72238" fill="#EE4312"/>
<circle cx="36.5014" cy="25.7224" r="0.72238" fill="#EE4312"/>
<circle cx="40.9461" cy="25.7224" r="0.72238" fill="#EE4312"/>
<circle cx="18.7224" cy="30.1672" r="0.72238" fill="#EE4312"/>
<circle cx="23.1671" cy="30.1672" r="0.72238" fill="#EE4312"/>
<circle cx="27.6119" cy="30.1672" r="0.72238" fill="#EE4312"/>
<circle cx="32.0566" cy="30.1672" r="0.72238" fill="#EE4312"/>
<circle cx="36.5014" cy="30.1672" r="0.72238" fill="#EE4312"/>
<circle cx="40.9461" cy="30.1672" r="0.72238" fill="#EE4312"/>
<circle cx="18.7224" cy="34.612" r="0.72238" fill="#EE4312"/>
<circle cx="23.1671" cy="34.612" r="0.72238" fill="#EE4312"/>
<circle cx="27.6119" cy="34.612" r="0.72238" fill="#EE4312"/>
<circle cx="32.0566" cy="34.612" r="0.72238" fill="#EE4312"/>
<circle cx="36.5014" cy="34.612" r="0.72238" fill="#EE4312"/>
<circle cx="40.9461" cy="34.612" r="0.72238" fill="#EE4312"/>
<path d="M16 22.1111C16 21.286 16.3278 20.4947 16.9112 19.9112C17.4947 19.3278 18.286 19 19.1111 19H40.8889C41.714 19 42.5053 19.3278 43.0888 19.9112C43.6722 20.4947 44 21.286 44 22.1111V37.6667C44 38.4918 43.6722 39.2831 43.0888 39.8666C42.5053 40.45 41.714 40.7778 40.8889 40.7778H19.1111C18.286 40.7778 17.4947 40.45 16.9112 39.8666C16.3278 39.2831 16 38.4918 16 37.6667V22.1111Z" stroke="#0E1947" stroke-width="1.5" stroke-linecap="round" stroke-linejoin="round"/>
<path d="M16 22.1108L30 31.4442L44 22.1108" stroke="#0E1947" stroke-width="1.5" stroke-linecap="round" stroke-linejoin="round"/>
</svg>
