<svg width="40" height="40" viewBox="0 0 40 40" fill="none" xmlns="http://www.w3.org/2000/svg">
<path d="M26.2493 7.5H13.7493C10.2975 7.5 7.49927 10.2982 7.49927 13.75V26.25C7.49927 29.7018 10.2975 32.5 13.7493 32.5H26.2493C29.701 32.5 32.4993 29.7018 32.4993 26.25V13.75C32.4993 10.2982 29.701 7.5 26.2493 7.5Z" stroke="#0E1947" stroke-width="2.5" stroke-linecap="round" stroke-linejoin="round"/>
<path d="M26.8739 13.1248H26.8864M24.9989 19.2123C25.1532 20.2526 24.9755 21.315 24.4911 22.2485C24.0067 23.182 23.2403 23.939 22.3009 24.4118C21.3615 24.8847 20.297 25.0493 19.2586 24.8822C18.2203 24.7151 17.2611 24.2249 16.5175 23.4812C15.7738 22.7376 15.2836 21.7783 15.1165 20.74C14.9494 19.7017 15.114 18.6371 15.5868 17.6977C16.0596 16.7583 16.8166 15.9919 17.7501 15.5076C18.6836 15.0232 19.7461 14.8455 20.7864 14.9998C21.8476 15.1571 22.83 15.6516 23.5885 16.4101C24.3471 17.1687 24.8415 18.1511 24.9989 19.2123Z" stroke="#0E1947" stroke-width="2.5" stroke-linecap="round" stroke-linejoin="round"/>
</svg>
