<svg width="40" height="40" viewBox="0 0 40 40" fill="none" xmlns="http://www.w3.org/2000/svg">
<path d="M12.8317 10.0835C12.8313 10.835 12.5325 11.5555 12.0008 12.0866C11.4692 12.6177 10.7484 12.9158 9.99696 12.9154C9.24551 12.9151 8.52499 12.6162 7.9939 12.0846C7.46281 11.553 7.16466 10.8321 7.16504 10.0807C7.16542 9.32925 7.46429 8.60873 7.99591 8.07764C8.52752 7.54655 9.24834 7.2484 9.99979 7.24878C10.7512 7.24916 11.4718 7.54803 12.0028 8.07965C12.5339 8.61126 12.8321 9.33208 12.8317 10.0835ZM12.9167 15.0135H7.25004V32.7502H12.9167V15.0135ZM21.87 15.0135H16.2317V32.7502H21.8134V23.4427C21.8134 18.2577 28.5709 17.776 28.5709 23.4427V32.7502H34.1667V21.516C34.1667 12.7752 24.165 13.101 21.8134 17.3935L21.87 15.0135Z" fill="#0E1947"/>
</svg>
